<?xml version="1.0" encoding="UTF-8"?>
<svg id="Layer_1" data-name="Layer 1" xmlns="http://www.w3.org/2000/svg" xmlns:xlink="http://www.w3.org/1999/xlink" viewBox="0 0 3644.3 534.51">
  <defs>
    <linearGradient id="linear-gradient" x1="472.57" y1="225.31" x2="535.53" y2="482.07" gradientUnits="userSpaceOnUse">
      <stop offset="0" stop-color="#1e90ff"/>
      <stop offset="1" stop-color="#004283"/>
    </linearGradient>
    <linearGradient id="linear-gradient-2" x1="305.49" y1="262.75" x2="435.99" y2="516.88" gradientUnits="userSpaceOnUse">
      <stop offset=".22" stop-color="#006fdb"/>
      <stop offset="1" stop-color="#00264b"/>
    </linearGradient>
    <linearGradient id="linear-gradient-3" x1="162.99" y1="254.27" x2="437.58" y2="529.51" gradientUnits="userSpaceOnUse">
      <stop offset="0" stop-color="#1e90ff"/>
      <stop offset="1" stop-color="#004283"/>
    </linearGradient>
    <linearGradient id="linear-gradient-4" x1="54.43" y1="288.67" x2="421.77" y2="521.13" gradientUnits="userSpaceOnUse">
      <stop offset=".21" stop-color="#006fdb"/>
      <stop offset="1" stop-color="#00264b"/>
    </linearGradient>
  </defs>
  <path d="M597.62,469.21c-8.57-1.6-17.27-2.46-25.99-2.57-32.34,0-60.93,10.95-86.96,29.47-8.31,5.78-16.13,12.24-23.36,19.32-3.34,3.14-4.91,3.34-7.81-.63-35.43-47.48-63.87-99.79-84.46-155.34-15.52-42.68-25.7-87.13-30.3-132.31-4.14-41.62-4.14-83.55,0-125.17,3.14-33.19,8.44-66.14,15.85-98.64,.27-1.2-.4-3.34,1.53-3.34s1.64,1.97,2.2,3.1c13.02,28.15,30.44,54.06,51.59,76.75,25.85,27.09,57.69,47.74,92.97,60.3,27.73,9.88,56.71,15.82,86.09,17.65,8.34,.6,8.48,.77,6.07,8.71-8.88,29.13-15.28,58.96-19.12,89.16-4.64,35.85-4.97,72.12-.97,108.05,3.84,34.37,11.92,68.13,24.06,100.51,1.64,4.44,1.27,5.11-1.4,4.97h0Z" fill="url(#linear-gradient)"/>
  <path d="M164.65,61.67c3.17,.37,4.34,2.74,5.97,4.34,18.75,18.73,40.07,34.7,63.3,47.45,24.48,13.12,51.45,20.97,79.15,23.03,4.6,.33,5.47,1.6,4.91,6.27-3.45,30.97-2.79,62.27,1.97,93.07,7.99,53.83,23.73,106.21,46.72,155.54,19.32,42.67,43.99,82.71,73.41,119.16,3.34,3.97,6.67,7.81,10.24,12.18-2.17-.14-4.21-1.09-5.71-2.67-64.35-45.49-119.89-102.31-163.91-167.68-35.95-54.02-64.64-112.52-85.33-174.02-12.1-35.85-22.01-72.4-29.67-109.45-.5-2.14-.7-4.67-1.07-7.21h0Z" fill="url(#linear-gradient-2)"/>
  <path d="M54.53,153.2c2.93,1.41,5.59,3.33,7.84,5.67,22.12,16.35,47.55,24.39,74.08,29.67,12.64,2.52,25.44,4.19,38.31,5.01,3.18-.08,5.97,2.1,6.67,5.21,19.39,51.19,44.34,100.09,74.41,145.83,44.93,68.19,102.85,126.86,170.45,172.65,2.84,1.94,5.61,3.97,8.48,5.87,2.71,1.67,5.33,3.49,7.84,5.44-6.26-1.49-12.29-3.83-17.92-6.94-62.89-28.54-121.74-65.25-175.02-109.19-50.15-41.86-94.32-90.39-131.28-144.26-23.85-34.77-44.84-71.44-62.73-109.62-.7-1.53-1.23-3.17-1.84-4.77l.7-.57Z" fill="url(#linear-gradient-3)"/>
  <path d="M436.84,534.51C251.77,495.91,111.99,389.59,0,240.43c4.3,1.16,8.39,2.97,12.15,5.37,25.09,11.88,51.69,14.95,78.99,13.78,3.57-.44,7.03,1.44,8.61,4.67,50.93,80.34,119,148.42,199.32,199.38,29.4,18.82,60,35.7,91.6,50.52,13.68,6.44,27.43,12.78,41.61,18.09,1.54,.6,3.04,1.67,4.57,2.27h0Z" fill="url(#linear-gradient-4)"/>
  <g>
    <path d="M647.46,445.83l44.67-253.72h211.49l-5.93,33.85h-177.64l-38.74,219.87h-33.85Zm85.85-109.24l5.58-31.41h134.71l-5.58,31.41h-134.71Z" fill="#1e90ff"/>
    <path d="M893.15,445.83l44.67-253.72h33.85l-38.74,219.87h177.29l-5.93,33.85h-211.14Z" fill="#1e90ff"/>
    <path d="M1141.99,445.83l44.67-253.72h33.85l-44.67,253.72h-33.85Z" fill="#1e90ff"/>
    <path d="M1305.32,373.24l5.58-32.81h109.59c41.53,0,68.4-29.32,68.4-68.4,0-28.27-17.1-46.07-48.16-46.07h-142.39l-38.74,219.87h-33.85l44.67-253.72h176.24c49.21,0,76.08,28.27,76.08,72.59,0,61.77-42.23,108.54-107.84,108.54h-109.59Z" fill="#1e90ff"/>
    <path d="M1526.93,445.83l5.93-33.85h188.81c32.46,0,51.3-20.59,51.3-48.16,0-20.59-12.91-31.41-37.34-31.41h-118.66c-40.13,0-62.82-25.13-62.82-59.33,0-44.67,33.15-80.97,88.3-80.97h181.13l-5.93,33.85h-181.13c-28.62,0-46.77,19.19-46.77,44.32,0,18.85,12.21,30.71,33.16,30.71h118.31c42.23,0,64.56,19.54,64.56,56.89,0,48.86-31.41,87.95-90.04,87.95h-188.81Z" fill="#1e90ff"/>
    <path d="M1946.43,445.83c-61.08,0-100.51-46.07-100.51-107.84,0-85.5,66.31-145.88,145.18-145.88h60.73c63.17,0,102.26,41.53,102.26,102.61,0,83.76-67.01,151.12-146.93,151.12h-60.73Zm66.66-33.85c57.93,0,106.45-48.86,106.45-109.93,0-44.67-28.27-76.08-73.64-76.08h-60.73c-56.89,0-105.4,45.72-105.4,108.19,0,44.67,28.27,77.83,72.59,77.83h60.73Z" fill="#1e90ff"/>
    <path d="M2445.5,192.11h33.16l-24.78,141.69c-13.61,78.52-58.98,115.52-155.3,115.52-82.01,0-116.92-26.87-116.92-83.76,0-9.77,1.05-20.24,3.14-31.76l24.78-141.69h34.9l-24.78,141.69c-2.09,11.17-3.14,20.59-3.14,28.97,0,42.58,26.52,53.05,89,53.05,74.69,0,105.05-24.78,115.17-82.01l24.78-141.69Z" fill="#1e90ff"/>
    <path d="M2722.6,445.83l-54.44-71.89h-111.33l5.58-31.41h113.42c45.02,0,68.06-28.27,68.06-72.59,0-29.67-17.1-43.97-47.46-43.97h-146.23l-38.74,219.87h-33.85l44.67-253.72h180.08c48.51,0,75.38,28.62,75.38,73.29,0,49.21-26.17,87.25-70.5,102.61l63.52,77.83h-48.16Z" fill="#1e90ff"/>
    <path d="M2905.12,445.83c-61.08,0-100.51-46.07-100.51-107.84,0-85.5,66.31-145.88,145.18-145.88h135.06l-5.93,33.85h-135.06c-56.89,0-105.4,45.72-105.4,108.19,0,44.67,28.27,77.83,72.59,77.83h135.06l-5.93,33.85h-135.06Z" fill="#1e90ff"/>
    <path d="M3079.62,445.83l44.67-253.72h222.66l-5.93,33.85h-188.81l-32.81,186.02h189.16l-5.93,33.85h-223.01Zm86.55-113.42l5.58-31.41h146.58l-5.58,31.41h-146.58Z" fill="#1e90ff"/>
    <path d="M3589.16,445.83l-54.44-71.89h-111.33l5.58-31.41h113.42c45.02,0,68.05-28.27,68.05-72.59,0-29.67-17.1-43.97-47.46-43.97h-146.23l-38.74,219.87h-33.85l44.67-253.72h180.08c48.51,0,75.38,28.62,75.38,73.29,0,49.21-26.17,87.25-70.5,102.61l63.52,77.83h-48.16Z" fill="#1e90ff"/>
  </g>
</svg>