<?xml version="1.0" encoding="utf-8"?>
<!-- Generator: Adobe Illustrator 27.0.0, SVG Export Plug-In . SVG Version: 6.00 Build 0)  -->
<svg version="1.1" id="Layer_1" xmlns="http://www.w3.org/2000/svg" xmlns:xlink="http://www.w3.org/1999/xlink" x="0px" y="0px"
	 viewBox="0 0 600 600" style="enable-background:new 0 0 600 600;" xml:space="preserve">
<style type="text/css">
	.st0{fill:url(#SVGID_1_);}
	.st1{fill:url(#SVGID_00000156590073473084658710000006957733965245343881_);}
	.st2{fill:url(#SVGID_00000162334085534132488300000006379598761233318823_);}
	.st3{fill:url(#SVGID_00000139252843664341646060000005170586203762878878_);}
</style>
<linearGradient id="SVGID_1_" gradientUnits="userSpaceOnUse" x1="472.5721" y1="258.0532" x2="535.5315" y2="514.8152">
	<stop  offset="0" style="stop-color:#1E90FF"/>
	<stop  offset="1" style="stop-color:#004283"/>
</linearGradient>
<path class="st0" d="M597.6,502c-8.6-1.6-17.3-2.5-26-2.6c-32.3,0-60.9,10.9-87,29.5c-8.3,5.8-16.1,12.2-23.4,19.3
	c-3.3,3.1-4.9,3.3-7.8-0.6c-35.4-47.5-63.9-99.8-84.5-155.3c-15.5-42.7-25.7-87.1-30.3-132.3c-4.1-41.6-4.1-83.5,0-125.2
	c3.1-33.2,8.4-66.1,15.9-98.6c0.3-1.2-0.4-3.3,1.5-3.3c1.9,0,1.6,2,2.2,3.1c13,28.2,30.4,54.1,51.6,76.8
	c25.9,27.1,57.7,47.7,93,60.3c27.7,9.9,56.7,15.8,86.1,17.7c8.3,0.6,8.5,0.8,6.1,8.7c-8.9,29.1-15.3,59-19.1,89.2
	c-4.6,35.8-5,72.1-1,108.1c3.8,34.4,11.9,68.1,24.1,100.5C600.7,501.4,600.3,502.1,597.6,502L597.6,502z"/>
<linearGradient id="SVGID_00000154413728090973325450000007661287094611782560_" gradientUnits="userSpaceOnUse" x1="305.4902" y1="295.4918" x2="435.9851" y2="549.6228">
	<stop  offset="0.2211" style="stop-color:#006FDB"/>
	<stop  offset="1" style="stop-color:#00264B"/>
</linearGradient>
<path style="fill:url(#SVGID_00000154413728090973325450000007661287094611782560_);" d="M164.6,94.4c3.2,0.4,4.3,2.7,6,4.3
	c18.8,18.7,40.1,34.7,63.3,47.5c24.5,13.1,51.4,21,79.2,23c4.6,0.3,5.5,1.6,4.9,6.3c-3.5,31-2.8,62.3,2,93.1
	c8,53.8,23.7,106.2,46.7,155.5c19.3,42.7,44,82.7,73.4,119.2c3.3,4,6.7,7.8,10.2,12.2c-2.2-0.1-4.2-1.1-5.7-2.7
	c-64.4-45.5-119.9-102.3-163.9-167.7c-35.9-54-64.6-112.5-85.3-174c-12.1-35.8-22-72.4-29.7-109.5C165.2,99.5,165,96.9,164.6,94.4
	L164.6,94.4z"/>
<linearGradient id="SVGID_00000087397599003112504800000000539319898970139284_" gradientUnits="userSpaceOnUse" x1="162.9927" y1="287.0087" x2="437.5764" y2="562.2559">
	<stop  offset="0" style="stop-color:#1E90FF"/>
	<stop  offset="1" style="stop-color:#004283"/>
</linearGradient>
<path style="fill:url(#SVGID_00000087397599003112504800000000539319898970139284_);" d="M54.5,185.9c2.9,1.4,5.6,3.3,7.8,5.7
	c22.1,16.4,47.6,24.4,74.1,29.7c12.6,2.5,25.4,4.2,38.3,5c3.2-0.1,6,2.1,6.7,5.2c19.4,51.2,44.3,100.1,74.4,145.8
	c44.9,68.2,102.8,126.9,170.5,172.7c2.8,1.9,5.6,4,8.5,5.9c2.7,1.7,5.3,3.5,7.8,5.4c-6.3-1.5-12.3-3.8-17.9-6.9
	c-62.9-28.5-121.7-65.2-175-109.2c-50.2-41.9-94.3-90.4-131.3-144.3c-23.9-34.8-44.8-71.4-62.7-109.6c-0.7-1.5-1.2-3.2-1.8-4.8
	L54.5,185.9z"/>
<linearGradient id="SVGID_00000088842977705380887270000015850144013691871902_" gradientUnits="userSpaceOnUse" x1="54.4331" y1="321.4124" x2="421.7684" y2="553.8751">
	<stop  offset="0.206" style="stop-color:#006FDB"/>
	<stop  offset="1" style="stop-color:#00264B"/>
</linearGradient>
<path style="fill:url(#SVGID_00000088842977705380887270000015850144013691871902_);" d="M436.8,567.3
	C251.8,528.6,112,422.3,0,273.2c4.3,1.2,8.4,3,12.1,5.4c25.1,11.9,51.7,14.9,79,13.8c3.6-0.4,7,1.4,8.6,4.7
	c50.9,80.3,119,148.4,199.3,199.4c29.4,18.8,60,35.7,91.6,50.5c13.7,6.4,27.4,12.8,41.6,18.1C433.8,565.6,435.3,566.7,436.8,567.3
	L436.8,567.3z"/>
</svg>
