<svg width="133" height="32" viewBox="0 0 133 32" fill="none" xmlns="http://www.w3.org/2000/svg">
<g clip-path="url(#clip0_0_3)">
<path d="M78.7538 12.6221C80.8099 12.6221 82.7569 13.8809 83.1682 16.6H74.0037C74.3897 14.2166 76.1773 12.6221 78.7538 12.6221ZM82.8828 20.6284C82.1862 21.7194 80.8267 22.5586 78.9804 22.5586C76.4291 22.5586 74.4821 21.1571 74.0121 18.6897H85.5096C85.5684 18.3372 85.5935 17.9764 85.5935 17.6155C85.5935 13.7718 82.908 10.3729 78.7622 10.3729C74.4821 10.3729 71.5699 13.5285 71.5699 17.5903C71.5699 21.7026 74.5072 24.8078 78.9216 24.8078C81.6659 24.8078 83.7472 23.5741 84.9557 21.711L82.8828 20.6284Z" fill="#006BFF"/>
<path d="M70.437 4.41432H68.0535V24.4468H70.437V4.41432Z" fill="#006BFF"/>
<path d="M98.8702 16.0209V24.4468H96.4868V16.1636C96.4868 13.9145 95.1944 12.6472 93.0879 12.6472C90.8891 12.6472 89.1099 13.9396 89.1099 17.1707V24.4384H86.7265V10.717H89.1099V12.6892C90.1254 11.0694 91.636 10.3561 93.5579 10.3561C96.7553 10.3729 98.8702 12.5129 98.8702 16.0209Z" fill="#006BFF"/>
<path d="M112.038 17.5903C112.038 14.7873 109.923 12.6808 107.153 12.6808C104.409 12.6808 102.294 14.7956 102.294 17.5903C102.294 20.3849 104.409 22.4998 107.153 22.4998C109.923 22.4998 112.038 20.3849 112.038 17.5903ZM114.421 4.41429V24.4468H112.038V22.0886C110.938 23.7586 109.184 24.8077 106.851 24.8077C103.041 24.8077 99.9109 21.6522 99.9109 17.5903C99.9109 13.5284 103.041 10.3729 106.851 10.3729C109.184 10.3729 110.938 11.4135 112.038 13.092V4.42269H114.421V4.41429Z" fill="#006BFF"/>
<path d="M118.727 4.41432H116.343V24.4468H118.727V4.41432Z" fill="#006BFF"/>
<path d="M63.7986 17.5903C63.7986 14.7873 61.6838 12.6808 58.9143 12.6808C56.17 12.6808 54.0551 14.7957 54.0551 17.5903C54.0551 20.385 56.17 22.4999 58.9143 22.4999C61.6838 22.4999 63.7986 20.385 63.7986 17.5903ZM66.182 10.7254V24.4469H63.7986V22.0886C62.6992 23.7587 60.9452 24.8078 58.6121 24.8078C54.802 24.8078 51.6717 21.6522 51.6717 17.5903C51.6717 13.5285 54.802 10.3729 58.6121 10.3729C60.9452 10.3729 62.6992 11.4136 63.7986 13.092V10.7338H66.182V10.7254Z" fill="#006BFF"/>
<path d="M48.1301 21.8117C46.9216 22.2565 45.604 22.3824 44.32 22.1642C42.3646 21.8369 40.6525 20.7627 39.5028 19.1429C38.353 17.5232 37.8998 15.5594 38.2271 13.604C38.5544 11.6486 39.6287 9.9365 41.2484 8.78676C42.8681 7.63701 44.8319 7.18382 46.7873 7.51951C48.0714 7.73771 49.2715 8.28323 50.2702 9.1057C50.6898 9.4498 51.0674 9.8442 51.4031 10.2722L53.4676 8.76158C53.006 8.15733 52.4773 7.60345 51.8983 7.13347C50.5555 6.02568 48.9358 5.28716 47.2153 4.99343C44.5885 4.54863 41.9365 5.15286 39.7629 6.69706C37.5893 8.24125 36.1458 10.5408 35.701 13.176C34.7863 18.6058 38.4537 23.7671 43.8836 24.6902C44.4291 24.7826 44.9914 24.8329 45.5536 24.8329C46.7454 24.8329 47.9035 24.6231 49.0113 24.2119C49.9512 23.8678 50.8408 23.3643 51.6465 22.7516L50.2702 20.578C49.6323 21.0983 48.9022 21.5263 48.1301 21.8117Z" fill="#006BFF"/>
<path d="M130.258 10.7254V18.5135C130.258 21.0312 128.789 22.6257 126.557 22.6257C124.324 22.6257 122.705 21.0312 122.705 18.5135V10.7254H120.288V18.2785C120.288 22.2397 122.755 24.8078 126.557 24.8078C129.846 24.8078 130.358 22.7264 130.358 22.6761V25.4791C130.358 28.257 129.15 29.818 126.632 29.818C124.735 29.818 123.174 28.4165 122.939 26.6121L120.783 27.3674C121.404 30.0194 123.77 32 126.632 32C130.535 32 132.675 29.4319 132.675 25.4707V10.717H130.258V10.7254Z" fill="#006BFF"/>
<path d="M19.4283 18.7233C18.5135 19.5374 17.3722 20.5529 15.2909 20.5529H14.0488C12.5466 20.5529 11.1786 20.0074 10.1967 19.0171C9.23998 18.052 8.71124 16.7259 8.71124 15.2908V13.5872C8.71124 12.1521 9.23998 10.8261 10.1967 9.861C11.1786 8.87071 12.5466 8.32521 14.0488 8.32521H15.2909C17.3722 8.32521 18.5135 9.3407 19.4283 10.1547C20.3766 11.0024 21.1991 11.7241 23.3895 11.7241C23.7336 11.7241 24.0608 11.6989 24.3881 11.6402C24.3881 11.6318 24.3798 11.6234 24.3798 11.6234C24.2455 11.2961 24.0944 10.9856 23.9182 10.6751L22.4495 8.14058C21.1068 5.8159 18.6226 4.3808 15.9371 4.3808H13.0081C10.3226 4.3808 7.83845 5.8159 6.49567 8.14058L5.02701 10.6751C3.68423 12.9997 3.68423 15.8699 5.02701 18.1946L6.49567 20.7291C7.83845 23.0538 10.3226 24.4889 13.0081 24.4889H15.9371C18.6226 24.4889 21.1068 23.0538 22.4495 20.7291L23.9182 18.1946C24.0944 17.8841 24.2455 17.5736 24.3798 17.2463C24.3798 17.2379 24.3881 17.2295 24.3881 17.2295C24.0608 17.1791 23.7336 17.1456 23.3895 17.1456C21.2075 17.1539 20.385 17.8757 19.4283 18.7233Z" fill="#006BFF"/>
<path d="M15.2908 9.861H14.0488C11.7577 9.861 10.2554 11.4975 10.2554 13.5872V15.2825C10.2554 17.3722 11.7577 19.0087 14.0488 19.0087H15.2908C18.6226 19.0087 18.3624 15.6098 23.3978 15.6098C23.8762 15.6098 24.3546 15.6517 24.8162 15.744C24.9672 14.8796 24.9672 13.9984 24.8162 13.134C24.3546 13.2179 23.8762 13.2683 23.3978 13.2683C18.3624 13.2599 18.6226 9.861 15.2908 9.861Z" fill="#006BFF"/>
<path d="M27.7115 16.9861C26.8471 16.3483 25.8652 15.9371 24.8162 15.7441C24.8162 15.7524 24.8162 15.7608 24.8162 15.7692C24.7238 16.2644 24.5896 16.7595 24.3965 17.2379C25.2777 17.3805 26.0918 17.7163 26.7884 18.2198C26.7884 18.2282 26.78 18.2366 26.78 18.245C26.3771 19.5458 25.7729 20.771 24.984 21.8872C24.2035 22.9866 23.2636 23.9601 22.181 24.7742C19.9318 26.461 17.263 27.3506 14.4432 27.3506C12.6976 27.3506 11.0108 27.0066 9.41621 26.3352C7.88041 25.689 6.49566 24.7574 5.31234 23.5657C4.12902 22.3824 3.19747 20.9976 2.54286 19.4618C1.87148 17.8757 1.5274 16.1805 1.5274 14.4432C1.5274 12.6976 1.87148 11.0108 2.54286 9.4162C3.18908 7.88041 4.12063 6.49566 5.31234 5.31234C6.49566 4.12902 7.88041 3.19747 9.41621 2.54286C11.0024 1.87148 12.6976 1.5274 14.4432 1.5274C17.2547 1.5274 19.9318 2.41699 22.181 4.10385C23.2636 4.91791 24.2035 5.88302 24.984 6.99081C25.7729 8.10699 26.3771 9.3323 26.78 10.6331C26.78 10.6415 26.7884 10.6499 26.7884 10.6583C26.0918 11.1702 25.2777 11.4975 24.3965 11.6402C24.5896 12.1185 24.7238 12.6053 24.8162 13.1088C24.8162 13.1172 24.8162 13.1256 24.8162 13.134C25.8652 12.941 26.8471 12.5214 27.7115 11.892C28.534 11.2793 28.3745 10.5911 28.2486 10.1883C26.4359 4.28848 20.9389 0 14.4432 0C6.46209 0 0 6.47051 0 14.4432C0 22.4244 6.47049 28.8864 14.4432 28.8864C20.9389 28.8864 26.4359 24.598 28.2486 18.6981C28.3745 18.2785 28.534 17.5904 27.7115 16.9861Z" fill="#006BFF"/>
<path d="M24.3965 11.6402C24.0692 11.6906 23.7419 11.7241 23.3978 11.7241C21.2074 11.7241 20.385 10.994 19.4367 10.1548C18.5219 9.3407 17.3721 8.32522 15.2992 8.32522H14.0572C12.5549 8.32522 11.187 8.87073 10.2051 9.861C9.24835 10.8261 8.71964 12.1521 8.71964 13.5872V15.2909C8.71964 16.7259 9.24835 18.052 10.2051 19.0171C11.187 20.0074 12.5466 20.5529 14.0572 20.5529H15.2992C17.3805 20.5529 18.5219 19.5374 19.4367 18.7234C20.385 17.8757 21.2074 17.154 23.3978 17.154C23.7419 17.154 24.0692 17.1791 24.3965 17.2379C24.5896 16.7595 24.7238 16.2728 24.8162 15.7692C24.8162 15.7608 24.8162 15.7525 24.8162 15.7441C24.3546 15.6601 23.8762 15.6182 23.3978 15.6182C18.3624 15.6182 18.6226 19.0171 15.2908 19.0171H14.0488C11.7577 19.0171 10.2554 17.3805 10.2554 15.2909V13.5872C10.2554 11.4975 11.7577 9.861 14.0488 9.861H15.2908C18.6226 9.861 18.3624 13.2599 23.3978 13.2599C23.8762 13.2599 24.3546 13.218 24.8162 13.134C24.8162 13.1256 24.8162 13.1173 24.8162 13.1089C24.7238 12.6053 24.5812 12.1102 24.3965 11.6402Z" fill="#0AE8F0"/>
<path d="M24.3965 11.6402C24.0692 11.6906 23.7419 11.7241 23.3978 11.7241C21.2074 11.7241 20.385 10.994 19.4367 10.1548C18.5219 9.3407 17.3721 8.32522 15.2992 8.32522H14.0572C12.5549 8.32522 11.187 8.87073 10.2051 9.861C9.24835 10.8261 8.71964 12.1521 8.71964 13.5872V15.2909C8.71964 16.7259 9.24835 18.052 10.2051 19.0171C11.187 20.0074 12.5466 20.5529 14.0572 20.5529H15.2992C17.3805 20.5529 18.5219 19.5374 19.4367 18.7234C20.385 17.8757 21.2074 17.154 23.3978 17.154C23.7419 17.154 24.0692 17.1791 24.3965 17.2379C24.5896 16.7595 24.7238 16.2728 24.8162 15.7692C24.8162 15.7608 24.8162 15.7525 24.8162 15.7441C24.3546 15.6601 23.8762 15.6182 23.3978 15.6182C18.3624 15.6182 18.6226 19.0171 15.2908 19.0171H14.0488C11.7577 19.0171 10.2554 17.3805 10.2554 15.2909V13.5872C10.2554 11.4975 11.7577 9.861 14.0488 9.861H15.2908C18.6226 9.861 18.3624 13.2599 23.3978 13.2599C23.8762 13.2599 24.3546 13.218 24.8162 13.134C24.8162 13.1256 24.8162 13.1173 24.8162 13.1089C24.7238 12.6053 24.5812 12.1102 24.3965 11.6402Z" fill="#0AE8F0"/>
</g>
<defs>
<clipPath id="clip0_0_3">
<rect width="133" height="32" fill="white"/>
</clipPath>
</defs>
</svg>
