<?xml version="1.0" encoding="UTF-8" standalone="no" ?>
<!DOCTYPE svg PUBLIC "-//W3C//DTD SVG 1.1//EN" "http://www.w3.org/Graphics/SVG/1.1/DTD/svg11.dtd">
<svg xmlns="http://www.w3.org/2000/svg" xmlns:xlink="http://www.w3.org/1999/xlink" version="1.1" width="923" height="202" viewBox="0 0 923 202" xml:space="preserve">
<desc>Created with Fabric.js 5.2.4</desc>
<defs>
</defs>
<g transform="matrix(0 0 0 0 0 0)" id="1b098841-46db-4a6f-b86e-666b9ef41212"  >
</g>
<g transform="matrix(1 0 0 1 461.5 101)" id="5180016c-f589-434b-90f4-1658ab1f072c"  >
<rect style="stroke: none; stroke-width: 1; stroke-dasharray: none; stroke-linecap: butt; stroke-dashoffset: 0; stroke-linejoin: miter; stroke-miterlimit: 4; fill: rgb(255,255,255); fill-rule: nonzero; opacity: 1; visibility: hidden;" vector-effect="non-scaling-stroke"  x="-461.5" y="-101" rx="0" ry="0" width="923" height="202" />
</g>
<g transform="matrix(0.99 0 0 0.99 461.26 100.95)"  >
<g style="" vector-effect="non-scaling-stroke"   >
		<g transform="matrix(7.76 0 0 7.76 0.18 0.04)"  >
<path style="stroke: none; stroke-width: 1; stroke-dasharray: none; stroke-linecap: butt; stroke-dashoffset: 0; stroke-linejoin: miter; stroke-miterlimit: 4; fill: rgb(66,71,112); fill-rule: evenodd; opacity: 0.35;" vector-effect="non-scaling-stroke"  transform=" translate(-59.5, -13)" d="M 113 26 L 6 26 C 2.686 26 0 23.314 0 20 L 0 6 C 0 2.686 2.686 0 6 0 L 113 0 C 116.314 0 119 2.686 119 6 L 119 20 C 119 23.314 116.314 26 113 26 z M 118 6 C 118 3.239 115.761 1 113 1 L 6 1 C 3.239 1 1 3.239 1 6 L 1 20 C 1 22.761 3.239 25 6 25 L 113 25 C 115.761 25 118 22.761 118 20 z" stroke-linecap="round" />
</g>
		<g transform="matrix(7.76 0 0 7.76 2.97 -1.92)"  >
<path style="stroke: none; stroke-width: 1; stroke-dasharray: none; stroke-linecap: butt; stroke-dashoffset: 0; stroke-linejoin: miter; stroke-miterlimit: 4; fill: rgb(66,71,112); fill-rule: evenodd; opacity: 0.5;" vector-effect="non-scaling-stroke"  transform=" translate(-59.86, -12.75)" d="M 60.7 18.437 L 59.395 18.437 L 60.405 15.943000000000001 L 58.395 10.871000000000002 L 59.774 10.871000000000002 L 61.037 14.323000000000002 L 62.31 10.871000000000002 L 63.689 10.871000000000002 z M 55.690000000000005 16.259 C 55.23800000000001 16.259 54.77400000000001 16.091 54.354000000000006 15.764000000000001 L 54.354000000000006 16.133000000000003 L 53.007000000000005 16.133000000000003 L 53.007000000000005 8.566 L 54.354000000000006 8.566 L 54.354000000000006 11.229000000000001 C 54.77400000000001 10.913 55.23800000000001 10.745000000000001 55.690000000000005 10.745000000000001 C 57.1 10.745000000000001 58.068000000000005 11.881 58.068000000000005 13.502 C 58.068000000000005 15.122 57.10000000000001 16.259 55.690000000000005 16.259 z M 55.406000000000006 11.902000000000001 C 55.038000000000004 11.902000000000001 54.669000000000004 12.06 54.354000000000006 12.376000000000001 L 54.354000000000006 14.628 C 54.669000000000004 14.943 55.038000000000004 15.101 55.406000000000006 15.101 C 56.16400000000001 15.101 56.690000000000005 14.449000000000002 56.690000000000005 13.502 C 56.690000000000005 12.555 56.164 11.902000000000001 55.406000000000006 11.902000000000001 z M 47.554 15.764000000000001 C 47.144000000000005 16.091 46.681000000000004 16.259 46.218 16.259 C 44.818000000000005 16.259 43.84 15.122 43.84 13.502 C 43.84 11.881 44.818000000000005 10.745000000000001 46.218 10.745000000000001 C 46.681000000000004 10.745000000000001 47.144000000000005 10.913 47.554 11.229000000000001 L 47.554 8.566 L 48.912 8.566 L 48.912 16.133000000000003 L 47.554 16.133000000000003 z M 47.554 12.376000000000001 C 47.249 12.06 46.881 11.902000000000001 46.513000000000005 11.902000000000001 C 45.74400000000001 11.902000000000001 45.218 12.555000000000001 45.218 13.502 C 45.218 14.449 45.74400000000001 15.101 46.513000000000005 15.101 C 46.88100000000001 15.101 47.249 14.943000000000001 47.554 14.628 z M 39.535000000000004 13.870000000000001 C 39.61900000000001 14.670000000000002 40.251000000000005 15.217 41.134 15.217 C 41.619 15.217 42.155 15.038 42.702 14.722000000000001 L 42.702 15.849000000000002 C 42.103 16.122000000000003 41.503 16.259 40.913 16.259 C 39.324 16.259 38.208999999999996 15.101 38.208999999999996 13.46 C 38.208999999999996 11.871 39.303 10.745000000000001 40.80799999999999 10.745000000000001 C 42.18699999999999 10.745000000000001 43.12299999999999 11.829 43.12299999999999 13.375 C 43.12299999999999 13.523 43.12299999999999 13.691 43.10199999999999 13.87 z M 40.756 11.786000000000001 C 40.103 11.786000000000001 39.598 12.271 39.535 12.997000000000002 L 41.82899999999999 12.997000000000002 C 41.78699999999999 12.281000000000002 41.355999999999995 11.786000000000001 40.75599999999999 11.786000000000001 z M 35.988 12.618000000000002 L 35.988 16.133000000000003 L 34.641 16.133000000000003 L 34.641 10.871000000000002 L 35.988 10.871000000000002 L 35.988 11.397000000000002 C 36.367 10.976000000000003 36.83 10.745000000000003 37.282 10.745000000000003 C 37.43 10.745000000000003 37.577 10.755000000000003 37.724 10.797000000000002 L 37.724 11.997000000000002 C 37.577 11.955000000000002 37.409 11.934000000000001 37.251 11.934000000000001 C 36.809 11.934000000000001 36.335 12.176000000000002 35.988 12.618 z M 29.979 13.870000000000003 C 30.063 14.670000000000003 30.694 15.217000000000002 31.578 15.217000000000002 C 32.062 15.217000000000002 32.599 15.038000000000002 33.146 14.722000000000003 L 33.146 15.849000000000004 C 32.546 16.122000000000003 31.946 16.259000000000004 31.357 16.259000000000004 C 29.768 16.259000000000004 28.653 15.101000000000004 28.653 13.460000000000004 C 28.653 11.871000000000004 29.747 10.745000000000005 31.252 10.745000000000005 C 32.629999999999995 10.745000000000005 33.567 11.829000000000004 33.567 13.375000000000004 C 33.567 13.523000000000003 33.567 13.691000000000004 33.546 13.870000000000003 z M 31.198999999999998 11.786000000000003 C 30.546999999999997 11.786000000000003 30.041999999999998 12.271000000000003 29.979 12.997000000000003 L 32.272999999999996 12.997000000000003 C 32.230999999999995 12.281000000000004 31.798999999999996 11.786000000000003 31.198999999999995 11.786000000000003 z M 25.273999999999997 16.133000000000003 L 24.2 12.555 L 23.137 16.133 L 21.927 16.133 L 20.117 10.870999999999999 L 21.464000000000002 10.870999999999999 L 22.527 14.448999999999998 L 23.59 10.870999999999999 L 24.81 10.870999999999999 L 25.872999999999998 14.448999999999998 L 26.935999999999996 10.870999999999999 L 28.282999999999998 10.870999999999999 L 26.483999999999998 16.133 z M 17.043 16.259000000000004 C 15.453999999999999 16.259000000000004 14.328 15.112000000000004 14.328 13.502000000000004 C 14.328 11.881000000000004 15.453999999999999 10.745000000000005 17.043 10.745000000000005 C 18.631999999999998 10.745000000000005 19.747999999999998 11.881000000000004 19.747999999999998 13.502000000000004 C 19.747999999999998 15.112000000000004 18.631999999999998 16.259000000000004 17.043 16.259000000000004 z M 17.043 11.871000000000004 C 16.253999999999998 11.871000000000004 15.706999999999999 12.534000000000004 15.706999999999999 13.502000000000004 C 15.706999999999999 14.470000000000004 16.253999999999998 15.133000000000004 17.043 15.133000000000004 C 17.822 15.133000000000004 18.369 14.470000000000004 18.369 13.502000000000004 C 18.369 12.534000000000004 17.822 11.871000000000004 17.043 11.871000000000004 z M 11.128 13.533000000000005 L 9.918 13.533000000000005 L 9.918 16.133000000000006 L 8.571 16.133000000000006 L 8.571 8.892 L 11.128 8.892 C 12.602 8.892 13.654 9.85 13.654 11.218 C 13.654 12.586 12.602 13.533 11.128 13.533 z M 10.939 9.987000000000005 L 9.918 9.987000000000005 L 9.918 12.439000000000005 L 10.939 12.439000000000005 C 11.718 12.439000000000005 12.265 11.944000000000006 12.265 11.218000000000005 C 12.265 10.482000000000005 11.718 9.987000000000005 10.939 9.987000000000005 z M 111.11600000000001 14.051000000000005 L 105.55700000000002 14.051000000000005 C 105.68400000000001 15.382000000000005 106.65900000000002 15.774000000000006 107.76600000000002 15.774000000000006 C 108.89300000000001 15.774000000000006 109.78100000000002 15.536000000000007 110.55500000000002 15.146000000000006 L 110.55500000000002 17.433000000000007 C 109.78400000000002 17.861000000000008 108.76500000000001 18.169000000000008 107.40800000000002 18.169000000000008 C 104.64200000000001 18.169000000000008 102.70400000000002 16.43700000000001 102.70400000000002 13.013000000000009 C 102.70400000000002 10.12100000000001 104.34800000000003 7.825000000000009 107.04900000000002 7.825000000000009 C 109.74600000000002 7.825000000000009 111.15400000000002 10.120000000000008 111.15400000000002 13.02800000000001 C 111.15400000000002 13.30300000000001 111.12900000000002 13.898000000000009 111.11600000000003 14.051000000000009 z M 107.03100000000002 10.140000000000006 C 106.32100000000003 10.140000000000006 105.53200000000002 10.676000000000005 105.53200000000002 11.955000000000005 L 108.46800000000002 11.955000000000005 C 108.46800000000002 10.677000000000005 107.72800000000002 10.140000000000006 107.03100000000002 10.140000000000006 z M 98.10800000000002 18.169000000000004 C 97.11400000000002 18.169000000000004 96.50700000000002 17.750000000000004 96.09900000000002 17.451000000000004 L 96.09300000000002 20.664000000000005 L 93.25400000000002 21.268000000000004 L 93.25300000000001 8.014000000000005 L 95.75300000000001 8.014000000000005 L 95.90100000000001 8.715000000000005 C 96.293 8.349000000000006 97.01200000000001 7.8250000000000055 98.12500000000001 7.8250000000000055 C 100.11900000000001 7.8250000000000055 101.99700000000001 9.621000000000006 101.99700000000001 12.927000000000007 C 101.99700000000001 16.535000000000007 100.13900000000001 18.169000000000008 98.10800000000002 18.169000000000008 z M 97.44600000000001 10.340000000000003 C 96.79500000000002 10.340000000000003 96.38600000000001 10.578000000000003 96.09000000000002 10.903000000000004 L 96.10700000000001 15.122000000000003 C 96.38300000000001 15.421000000000003 96.78000000000002 15.661000000000003 97.44600000000001 15.661000000000003 C 98.49600000000001 15.661000000000003 99.20000000000002 14.518000000000002 99.20000000000002 12.989000000000003 C 99.20000000000002 11.504000000000003 98.48500000000001 10.340000000000003 97.44600000000001 10.340000000000003 z M 89.14900000000002 8.014000000000003 L 91.99900000000001 8.014000000000003 L 91.99900000000001 17.966 L 89.14900000000002 17.966 z M 89.14900000000002 4.836000000000003 L 91.99900000000001 4.230000000000003 L 91.99900000000001 6.543000000000003 L 89.14900000000002 7.149000000000003 z M 86.11000000000001 11.219000000000003 L 86.11000000000001 17.966 L 83.27200000000002 17.966 L 83.27200000000002 8.014 L 85.72700000000002 8.014 L 85.90500000000002 8.853 C 86.57000000000002 7.631 87.89700000000002 7.879 88.27500000000002 8.015 L 88.27500000000002 10.625 C 87.91400000000002 10.508 86.78100000000002 10.338 86.11000000000001 11.219 z M 80.02400000000002 14.475000000000003 C 80.02400000000002 16.148000000000003 81.81600000000002 15.627000000000002 82.17900000000002 15.482000000000003 L 82.17900000000002 17.793000000000003 C 81.80100000000002 18.001 81.11500000000001 18.169000000000004 80.18700000000001 18.169000000000004 C 78.50200000000001 18.169000000000004 77.23700000000001 16.928000000000004 77.23700000000001 15.247000000000003 L 77.25000000000001 6.1380000000000035 L 80.02200000000002 5.548000000000004 L 80.02400000000002 8.014000000000003 L 82.18000000000002 8.014000000000003 L 82.18000000000002 10.435000000000002 L 80.02400000000002 10.435000000000002 z M 76.48500000000001 14.959000000000003 C 76.48500000000001 17.003000000000004 74.85800000000002 18.169000000000004 72.49700000000001 18.169000000000004 C 71.51800000000001 18.169000000000004 70.44800000000001 17.979000000000003 69.39200000000001 17.525000000000006 L 69.39200000000001 14.814000000000005 C 70.34500000000001 15.332000000000006 71.55900000000001 15.721000000000005 72.50000000000001 15.721000000000005 C 73.13300000000001 15.721000000000005 73.58900000000001 15.551000000000005 73.58900000000001 15.026000000000005 C 73.58900000000001 13.671000000000005 69.27300000000001 14.181000000000004 69.27300000000001 11.038000000000006 C 69.27300000000001 9.028000000000006 70.808 7.8250000000000055 73.111 7.8250000000000055 C 74.052 7.8250000000000055 74.992 7.969000000000006 75.933 8.344000000000005 L 75.933 11.019000000000005 C 75.069 10.552000000000005 73.97200000000001 10.288000000000006 73.10900000000001 10.288000000000006 C 72.51400000000001 10.288000000000006 72.144 10.460000000000006 72.144 10.903000000000006 C 72.144 12.181000000000006 76.485 11.573000000000006 76.485 14.959000000000007 z" stroke-linecap="round" />
</g>
</g>
</g>
</svg>