<svg xmlns="http://www.w3.org/2000/svg" width="250" height="47.274" viewBox="0 0 250 47.274">
    <defs>
        <style>.a{fill:#dd6e3b;}.b{fill:#7c7e7e;}</style>
    </defs>
    <g transform="translate(-22.6 -18.5)">
        <path class="a" d="M40.5,41.65a8.62,8.62,0,0,0,2.429-6.207V30.405c0-6.882-3.733-10.705-10.48-10.705H22.6V65.85H33.035c6.792,0,10.48-3.823,10.48-10.705V48.757A8.708,8.708,0,0,0,40.5,41.65ZM30.561,45.7h2.474c.585,0,2.429,0,2.429,3.329v5.982c0,3.329-1.8,3.329-2.429,3.329H30.561Zm4.273-10.525c0,3.329-1.8,3.329-2.429,3.329H30.517V27.3h1.889c.585,0,2.429,0,2.429,3.329Z" transform="translate(0 -0.66)"/>
        <path class="a" d="M110.37,18.5c-6.522,0-10.57,4.048-10.57,10.57V55.159c0,6.522,4.048,10.57,10.57,10.57s10.57-4.048,10.57-10.57V29.07C120.941,22.548,116.892,18.5,110.37,18.5ZM107.9,29.385c0-3.329,1.844-3.329,2.474-3.329s2.474,0,2.474,3.329V54.8c0,3.329-1.844,3.329-2.474,3.329s-2.474,0-2.474-3.329Z" transform="translate(-42.475)"/>
        <path class="a" d="M198.79,19.7h-7.962l-3.643,12.01-3.6-12.01h-8.051l7.107,22.985L175.4,65.85h8.006l3.733-12.46,3.508,12.46h8.186l-7.2-23.255Z" transform="translate(-84.07 -0.66)"/>
        <path class="b" d="M262.913,19.7H258.1V65.85h13.719V61.127h-8.906Z" transform="translate(-129.572 -0.66)"/>
        <path class="b" d="M333.119,55.729c0,5.218-2.024,5.892-4,5.892s-4-.72-4-5.892V19.7H320.3V55.729c0,6.882,3.149,10.66,8.816,10.66s8.816-3.778,8.816-10.66V19.7h-4.813Z" transform="translate(-163.794 -0.66)"/>
        <path class="b" d="M406.869,49.432,398.593,19.7H393.6V65.85h4.723V35.983L406.6,65.85h4.993V19.7h-4.723Z" transform="translate(-204.123 -0.66)"/>
        <path class="b" d="M476.446,18.5c-3.194,0-8.546,1.394-8.546,10.66V55.114c0,9.266,5.353,10.66,8.546,10.66,3.913,0,8.546-1.844,8.546-10.66V51.47H480.18v3.643c0,5.218-1.889,5.892-3.733,5.892s-3.733-.72-3.733-5.892V29.16c0-5.218,1.889-5.892,3.733-5.892s3.733.72,3.733,5.892V32.8h4.858V29.16C485.037,20.344,480.359,18.5,476.446,18.5Z" transform="translate(-245.003)"/>
        <path class="b" d="M552.184,19.7V39.671h-7.917V19.7H539.5V65.85h4.768v-21.5h7.917v21.5H557V19.7Z" transform="translate(-284.397 -0.66)"/>
    </g>
</svg>