<?xml version="1.0" encoding="utf-8"?>
<!-- Generator: Adobe Illustrator 27.5.0, SVG Export Plug-In . SVG Version: 6.00 Build 0)  -->
<svg version="1.1" id="Layer_1" xmlns="http://www.w3.org/2000/svg" xmlns:xlink="http://www.w3.org/1999/xlink" x="0px" y="0px"
	 width="570px" height="170px" viewBox="0 0 570 170" style="enable-background:new 0 0 570 170;" xml:space="preserve">
<style type="text/css">
	.st0{fill:#006535;}
</style>
<g>
	<g>
		<path class="st0" d="M38.4,133.09c0.01-12.69-33.84-2.9-33.84-26.74c0-14.37,12.86-19.51,26.53-19.47c5.89,0,14.4,1.23,20.83,3.18
			c0,5.16-0.01,10.32-0.01,15.48c-3.17,0.06-6.34,0.12-9.51,0.18c-0.27-5.11-5.88-8.61-12.04-8.55c-6.07,0.06-9.6,2.68-9.6,6.87
			c0,11.35,33.95,3.37,33.93,25.8c-0.01,15.12-12.78,21.61-26.62,22.65c-5.79,0.41-15.65-0.08-22.79-1.99c0-5.61,0-11.22,0-16.83
			c3.23-0.18,6.45-0.35,9.68-0.52c0.54,5.8,5.24,9.16,12.93,8.68C33.96,141.45,38.4,137.62,38.4,133.09z"/>
		<path class="st0" d="M89.58,89.61c11.3,0,17.22,7.36,17.21,16.43c-0.01,9.99-6.74,16.99-17.46,17.36c-3.05,0.1-6.1,0.2-9.15,0.3
			c0,3.41-0.01,6.83-0.01,10.24c1.67-0.07,3.34-0.14,5-0.21c0,2.65-0.01,5.3-0.01,7.95c-7.39,0.37-14.77,0.75-22.15,1.16
			c0-2.71,0.01-5.41,0.01-8.12c0.83-0.04,1.67-0.08,2.5-0.12c1.57-0.07,2-0.83,2-1.93c0.01-11.03,0.02-22.05,0.04-33.08
			c0-1.1-0.43-1.83-1.79-1.82c-0.91,0.01-1.81,0.02-2.72,0.03c0-2.71,0.01-5.41,0.01-8.12C71.9,89.66,80.74,89.64,89.58,89.61z
			 M80.2,98.86c-0.01,5.23-0.01,10.46-0.02,15.69c1.98-0.05,3.96-0.1,5.93-0.15c6.08-0.16,7.73-4.06,7.73-8.01
			c0.01-4.02-1.99-7.65-7.78-7.6C84.11,98.82,82.16,98.84,80.2,98.86z"/>
		<path class="st0" d="M137.48,88.68c15.16,0.01,24.58,8.74,24.56,25.36c-0.02,16.69-9.47,25.64-24.63,26.23
			c-15.09,0.6-24.58-7.93-24.56-25.28C112.87,97.71,122.39,88.66,137.48,88.68z M137.42,131.53c6.79-0.22,11.66-4.42,11.68-17.27
			c0.02-12.79-4.84-16.88-11.63-16.84c-6.72,0.04-11.66,4.27-11.68,17.29C125.77,127.8,130.7,131.75,137.42,131.53z"/>
		<path class="st0" d="M168.95,130.93c0.83-0.02,1.67-0.04,2.5-0.06c1.57-0.04,2-0.73,2-1.74c0.01-10.17,0.03-20.34,0.04-30.52
			c0-1.02-0.43-1.69-1.79-1.69c-0.91,0-1.81,0.01-2.72,0.02c0-2.49,0.01-4.99,0.01-7.48c8.51-0.01,17.02-0.02,25.52-0.03
			c13.23-0.01,18.87,5.98,18.86,13.97c-0.01,6.39-3.94,10.69-10.09,11.97c7.15,1.99,8.22,5.71,8.22,9.18c0,0.58,0,1.16,0,1.73
			c0,2.47,0.5,3.52,4.57,3.73c0,2.44,0,4.88-0.01,7.32c-1.07,0.15-3,0.38-5.79,0.44c-7.15,0.14-11.51-1.97-11.51-10.62
			c0-0.89,0-1.79,0-2.68c0-2.68-1.5-5.47-6.22-5.41c-2.15,0.03-4.29,0.06-6.44,0.1c0,3.8-0.01,7.59-0.01,11.39
			c1.26-0.03,2.53-0.05,3.79-0.08c0,2.47-0.01,4.93-0.01,7.4c-6.99,0.16-13.97,0.35-20.96,0.55
			C168.95,135.91,168.95,133.42,168.95,130.93z M186.14,111.81c2.34-0.03,4.67-0.05,7.01-0.08c6.22-0.07,7.23-4.3,7.23-7.44
			c0-2.68-1.07-6.35-7.22-6.33c-2.34,0.01-4.67,0.02-7.01,0.04C186.15,102.6,186.15,107.2,186.14,111.81z"/>
		<path class="st0" d="M252.28,129.62c0.83-0.01,1.67-0.01,2.5-0.02c0,2.42,0,4.84,0,7.25c-7.23,0.05-14.45,0.13-21.68,0.22
			c0-2.43,0-4.86,0-7.28c0.83-0.01,1.67-0.02,2.5-0.03c1.57-0.02,2-0.68,2-1.67c0.01-10.1,0.01-20.2,0.02-30.3
			c-2.88,0.01-5.77,0.02-8.65,0.02c-0.5,2.56-1,5.13-1.51,7.7c-2.34,0.01-4.67,0.03-7.01,0.04c0-5.38,0.01-10.77,0.01-16.15
			c15.66-0.01,31.32-0.02,46.97-0.02c0,5.33,0,10.66,0,16c-2.34,0-4.67,0.01-7.01,0.01c-0.5-2.55-1-5.09-1.5-7.64
			c-2.88,0-5.77,0.01-8.65,0.01c0,10.12-0.01,20.23-0.01,30.35C250.35,129.1,250.78,129.63,252.28,129.62z"/>
		<path class="st0" d="M300.28,123.47c0-9.56-26.75-3.44-26.75-20.74c0-10.4,10.15-14.15,20.95-14.15c4.65,0,11.37,0.92,16.44,2.44
			c0,3.95,0,7.91,0,11.86c-2.5-0.01-5.01-0.01-7.51-0.01c-0.22-3.89-4.65-6.59-9.51-6.59c-4.79,0-7.58,1.91-7.58,5
			c0,8.41,26.82,3.04,26.82,20.33c0,11.67-10.08,15.94-21.03,15.92c-4.58-0.01-12.38-0.93-18.03-2.69c0-4.08,0-8.16,0-12.24
			c2.55,0,5.1-0.01,7.65-0.01c0.43,4.28,4.15,6.97,10.23,6.98C296.78,129.58,300.28,126.9,300.28,123.47z"/>
		<path class="st0" d="M390.56,138.12c-7.03-0.18-14.07-0.35-21.1-0.5c0-2.45-0.01-4.91-0.01-7.36c1.31,0.02,2.62,0.05,3.93,0.07
			c-0.01-9.48-0.02-18.96-0.03-28.43c-4.61,11.91-9.22,23.74-13.84,35.53c-3.34-0.06-6.68-0.12-10.01-0.17
			c-4.68-11.88-9.37-23.7-14.04-35.48c0.01,9.33,0.01,18.67,0.02,28c1.31,0.01,2.62,0.03,3.93,0.04c0,2.43,0,4.86,0.01,7.29
			c-6.34-0.09-12.69-0.16-19.03-0.21c0-2.42,0-4.84,0-7.26c0.83,0.01,1.67,0.01,2.5,0.02c1.57,0.01,2-0.64,2-1.63
			c-0.01-9.91-0.01-19.81-0.02-29.72c0-0.99-0.43-1.65-1.79-1.65c-0.91,0-1.81,0-2.72,0c0-2.42,0-4.84,0-7.26
			c7.82,0,15.63,0.01,23.45,0.01c4.15,10.75,8.31,21.54,12.47,32.38c4.07-10.74,8.13-21.52,12.2-32.36
			c7.34,0.01,14.68,0.02,22.02,0.03c0,2.48,0.01,4.96,0.01,7.44c-0.91,0-1.81-0.01-2.72-0.01c-1.36-0.01-1.79,0.67-1.79,1.68
			c0.01,10.12,0.02,20.24,0.04,30.35c0,1.01,0.43,1.7,2,1.73c0.83,0.02,1.67,0.04,2.5,0.06
			C390.56,133.16,390.56,135.64,390.56,138.12z"/>
		<path class="st0" d="M412.32,97c-2.43-0.01-4.86-0.03-7.29-0.04c0.69-2.49,1.38-4.99,2.06-7.49c8.06,0.01,16.11,0.03,24.17,0.04
			c4.47,13.31,8.95,26.74,13.43,40.32c0.43,1.34,1,2.41,2.65,2.47c0.86,0.03,1.72,0.06,2.57,0.09c0,2.57,0.01,5.15,0.01,7.72
			c-7.48-0.31-14.97-0.59-22.45-0.85c0-2.53-0.01-5.07-0.01-7.6c1.43,0.04,2.86,0.09,4.29,0.13c-0.96-3.33-1.92-6.66-2.87-9.98
			c-4.81-0.11-9.63-0.22-14.44-0.33c-1.04,3.24-2.09,6.48-3.13,9.71c1.48,0.04,2.96,0.08,4.43,0.12c0,2.51,0.01,5.03,0.01,7.54
			c-6.63-0.21-13.25-0.41-19.88-0.59c0-2.49-0.01-4.97-0.01-7.46c1.05,0.02,2.1,0.05,3.15,0.07c1.64,0.04,2.22-0.97,2.64-2.25
			C405.2,118.15,408.76,107.61,412.32,97z M422.04,98.51c-0.24,0-0.48,0-0.71-0.01c-1.68,5.47-3.37,10.92-5.05,16.36
			c3.6,0.06,7.2,0.13,10.8,0.2C425.4,109.53,423.72,104.01,422.04,98.51z"/>
		<path class="st0" d="M502.95,142.62c0,0.01,0-0.01-13.43-0.7c-6.87-11.63-13.75-23.02-20.63-34.22
			c0.01,8.46,0.02,16.92,0.03,25.39c1.5,0.06,3,0.12,4.5,0.18c0,2.62,0.01,5.25,0.01,7.87c-6.41-0.3-12.82-0.58-19.23-0.85
			c0-2.58-0.01-5.17-0.01-7.75c0.83,0.03,1.67,0.06,2.5,0.09c1.57,0.06,2-0.63,2-1.69c-0.01-10.61-0.03-21.21-0.04-31.82
			c0-1.06-0.43-1.77-1.79-1.78c-0.91-0.01-1.81-0.02-2.72-0.02c0-2.58-0.01-5.17-0.01-7.75c6.05,0.01,12.11,0.03,18.16,0.04
			c6.85,11.2,13.71,22.59,20.56,34.21c-0.01-8.72-0.02-17.43-0.03-26.15c-1.5-0.02-3-0.03-4.5-0.04c0-2.66-0.01-5.32-0.01-7.98
			c6.36,0.02,12.73,0.03,19.09,0.05c0,2.71,0.01,5.42,0.01,8.13c-0.91-0.01-1.81-0.02-2.72-0.03c-1.36-0.01-1.79,0.72-1.79,1.82
			C502.92,113.94,502.93,128.28,502.95,142.62z"/>
		<path class="st0" d="M549.16,133.99c0-12.9-33.85-6.2-33.87-28.68c-0.01-13.5,12.84-18.4,26.52-18.43c5.89,0,14.4,1.24,20.83,3.34
			c0,5.42,0,10.83,0,16.25c-3.17-0.07-6.34-0.14-9.5-0.21c-0.27-5.29-5.89-9.01-12.04-9.07c-6.07-0.06-9.6,2.43-9.59,6.52
			c0.01,11.16,33.95,4.73,33.95,28.54c0,16.1-12.75,21.04-26.59,20.01c-5.79-0.42-15.65-2.32-22.8-5.07
			c0-5.32-0.01-10.64-0.01-15.96c3.23,0.15,6.46,0.29,9.68,0.44c0.55,5.65,5.26,9.47,12.95,9.94
			C544.73,141.99,549.16,138.62,549.16,133.99z"/>
	</g>
	<g>
		<path class="st0" d="M175.29,166.23h-4.37l-1.83-9.46l-1.91,9.46h-4.12l-2.73-11.02c-0.1-0.36-0.27-0.65-0.71-0.65h-0.74v-2.1
			h5.89v2.1h-1.2l1.85,8.14h0.08l2-10.24h3.85c0.67,3.41,1.32,6.83,2,10.24c0,0,0.06,0,0.08,0l1.94-8.14h-1.49v-2.1h5.62v2.1h-0.82
			c-0.44,0-0.61,0.29-0.71,0.65L175.29,166.23z"/>
		<path class="st0" d="M198.53,154.56h-1.94l0.55-2.1h6.44l3.57,10.98c0.11,0.36,0.27,0.65,0.71,0.65h0.69v2.1h-5.99v-2.1h1.14
			l-0.76-2.73h-3.85l-0.84,2.73h1.18v2.1h-5.3v-2.1h0.84c0.44,0,0.59-0.29,0.71-0.65L198.53,154.56z M201.13,154.96h-0.19
			l-1.35,4.56h2.88L201.13,154.96z"/>
		<path class="st0" d="M224.46,164.09h0.67c0.42,0,0.53-0.19,0.53-0.48v-8.58c0-0.29-0.11-0.48-0.48-0.48h-0.72v-2.1h6.81
			c3.53,0,5.03,1.72,5.03,4c0,1.83-1.05,3.05-2.69,3.39c1.91,0.59,2.19,1.66,2.19,2.65v0.5c0,0.71,0.13,1.01,1.22,1.09v2.1
			c-0.29,0.04-0.8,0.1-1.54,0.1c-1.91,0-3.07-0.63-3.07-3.09v-0.76c0-0.76-0.4-1.56-1.66-1.56h-1.72v3.22h1.01v2.1h-5.59V164.09z
			 M229.04,158.79h1.87c1.66,0,1.93-1.2,1.93-2.1c0-0.76-0.29-1.81-1.93-1.81h-1.87V158.79z"/>
		<path class="st0" d="M254.28,154.56h-0.72v-2.1h10.62v3.97h-1.75l-0.72-1.54h-3.57v3.18h4v2.08h-4v3.64h3.74l0.61-1.6h1.75v4
			h-10.68v-2.1h0.67c0.42,0,0.53-0.19,0.53-0.48v-8.58C254.76,154.75,254.64,154.56,254.28,154.56z"/>
		<path class="st0" d="M295.55,164.09v2.1h-5.8v-2.1h1.2v-3.68h-5.22v3.68h1.2v2.1h-5.78v-2.1h0.67c0.42,0,0.53-0.19,0.53-0.48
			v-8.58c0-0.29-0.11-0.48-0.48-0.48h-0.72v-2.1h5.78v2.1h-1.2v3.43h5.22v-3.43h-1.2v-2.1h5.8v2.1h-0.72
			c-0.36,0-0.48,0.19-0.48,0.48v8.58c0,0.29,0.11,0.48,0.53,0.48H295.55z"/>
		<path class="st0" d="M318.74,152.24c4.04,0,6.56,2.44,6.56,7.09c0,4.67-2.52,7.09-6.56,7.09c-4.02,0-6.56-2.42-6.56-7.09
			C312.18,154.68,314.72,152.24,318.74,152.24z M318.74,164.02c1.81,0,3.11-1.12,3.11-4.69c0-3.55-1.3-4.69-3.11-4.69
			c-1.79,0-3.11,1.14-3.11,4.69C315.63,162.89,316.95,164.02,318.74,164.02z"/>
		<path class="st0" d="M353.89,161.27c0,3.64-1.94,5.15-5.51,5.15c-3.68,0-5.62-1.53-5.62-5.15V155c0-0.23-0.1-0.44-0.46-0.44h-0.65
			v-2.1h5.66v2.1h-1.18v6.98c0,2.06,1.28,2.48,2.5,2.48c1.16,0,2.48-0.48,2.48-2.46v-7H350v-2.1h5v2.1h-0.65
			c-0.36,0-0.46,0.21-0.46,0.44V161.27z"/>
		<path class="st0" d="M378.68,162.34c0-2.76-7.13-0.99-7.13-6.01c0-3.01,2.71-4.1,5.59-4.1c1.24,0,3.03,0.27,4.38,0.71v3.43h-2
			c-0.06-1.12-1.24-1.91-2.54-1.91c-1.28,0-2.02,0.55-2.02,1.45c0,2.44,7.15,0.88,7.15,5.87c0,3.37-2.69,4.63-5.61,4.63
			c-1.22,0-3.3-0.27-4.8-0.78v-3.55h2.04c0.11,1.24,1.11,2.02,2.73,2.02C377.74,164.11,378.68,163.33,378.68,162.34z"/>
		<path class="st0" d="M399.54,154.56h-0.72v-2.1h10.62v3.97h-1.75l-0.72-1.54h-3.57v3.18h4v2.08h-4v3.64h3.74l0.61-1.6h1.75v4
			h-10.68v-2.1h0.67c0.42,0,0.53-0.19,0.53-0.48v-8.58C400.01,154.75,399.9,154.56,399.54,154.56z"/>
	</g>
	<g>
		<path class="st0" d="M513.15,99.08c-0.49,0.45-1.09,0.67-1.82,0.67h-1.72v-9.51h4.28v7.15C513.88,98.07,513.64,98.63,513.15,99.08
			z"/>
	</g>
	<g>
		<path class="st0" d="M128.58,73.43c5.29-2.65,12.08-5.57,15.73-9.57c8.44-5.54,16.6-9.07,25.56-14.87
			c5.48-3.57,6.15-10.29,15.03-10.97c0.47,0.25,0.88,0.52,1.31,0.79l-2.53,1.07v3.18c0,3.88-3.01,4.06-5.72,7.69v1.84
			c3,0,5.06,0.51,6.75,1.34c-0.95,0.45-5.21,1.84-5.21,3.18c0,0-3.28,3.8-5.31,6.94c-0.31,0.27-0.63,0.54-0.96,0.82
			c-0.38,0.34,0.19,0.82,0.58,0.5c0.82-0.71,1.59-1.33,2.35-1.89c1.13-0.71,2.4-1.46,3.7-2.11c1.31-0.59,2.75-1.11,4.52-1.54
			c0.1-0.01,0.22-0.05,0.32-0.05l0.29-0.1c5.04-1.2,11-2.27,15.05-4.09c1.19-1.04,2.32-1.58,4-2.25c5.7-1.59,4.69-3.17,6.69-7.3
			c3.24-2.7,6.61-2.95,9.78-5.87c2.43-1.98,3.51-4.17,6.09-6.27l2.66-0.4c1.74-1.93,4.56-4.06,7.49-4.06c0.39,0,0.62-0.77,0.23-0.77
			c-0.06,0-0.12,0.02-0.18,0.02c0.13-0.33,0.3-0.62,0.47-0.92c0.49-0.13,1.28-0.48,2.4-1.17c1.52-0.5,2.77-1.02,4.3-1.39
			c1.36-2.53,0.8-1.54,2.63-3.7c1.64-1.56,2.58-3.18,3.61-5.03c1.42-0.67,2.58-0.77,4.57-1.14c1.21-0.75,2.24-1.25,3.55-1.8
			c0.85-0.03,1.42,0,2.03,0.03l-1.92,2.27c0,0,3.29,2.75-0.13,4.99c-0.74,0.15-1.47,0.31-2.31,0.39c-0.63,0.06-0.53,0.89,0.1,0.84
			c7.89-0.72,12.24-4.25,16.37-7.64c2.46-3.68,5.19-6.91,10.23-7.73c2.66,6-2.74,8.46-5.6,13.29c3.89,0.45,6.53,0.7,9.9,1.4
			l-2.06,1.34c3.52,1.01,7.18,0.69,8.87,3.62c-5.51,3.7-15.69,3.7-19.87,8.6h16.21c7.69,0.82,13.34,2.34,16.93,6.36
			c-2.93,0.76-6.01,1.34-8.05,2.67c2.78,1.02,10.4,0.64,10.4,3.63c0,1.39-3.58,3.04-4.69,3.87c-4.8,3.04,3.2,2.06,16.49,2.36
			c11.95-1.1,21.91,5.49,26.42,6.64c0.08-0.02,0.11-0.12,0.15-0.2c2.26,0.89,4.3,1.28,6.75,2.16c0.73,0.27,1.18-0.68,0.45-0.92
			c-2.64-0.96-3.63-1.99-6.11-3.08c-3.18-4.71-2.29-4.47-7.48-7.36c-4.87-2.83-13.63-2.89-17.26-6.79c-1.45-1.56-2.7-3.26-3.89-4.99
			c1.66-0.52,4.06-1.32,5.15-1.79c1.28-1.17,2.44-1.94,4.06-2.74c1.76-0.57,3.24-1.08,4.8-1.73c1.82-1.17,2.73-2.21,4.09-3.72
			l1.72-0.32c1.31-1.53,2.26-2.68,3.57-4.14c3.97-0.78,5.39-0.77,6.91,0.01c-0.09,0.48-0.21,1.36,0.07,1.95
			c3.33,7.05-1.31,7.87-2.05,9.98c4.1,0.26,9.32,1.47,11.43,2.68l-4.69,2.73c0,0,0.89,1.15,2.13,1.34c6.84,1.01,8.74-0.23,14.08,0
			c5.34,0.24,9.02,1.27,11.95,3.19v1.84c-2.57,0.69-5.06,1.15-7.26,2.67l3.09,0.95c-3.52,2.54-6.9,2.92-9.9,5.41
			c10.41,4.33,21.41,1.9,27.13,10.43c3.16,2.32,6.46,4.09,9.71,5.43h35.68c-0.45-0.07-0.9-0.13-1.37-0.2
			c-2.1-0.3-2.96-1.61-4.32-3.9c-0.89-1.51-1.91-3.23-3.56-4.48c-4.78-3.61-10.43-4.25-16.98-5c-1.29-0.15-2.65-0.3-4.06-0.48
			l-3.05-2.79c-4.85-6.17-9.6-11.47-18.14-13.96c-1.62-0.71-3.03-2.15-4.51-3.68c-1.51-1.55-3.06-3.16-5.05-4.17
			c-1.42-0.72-2.83-0.8-3.91-0.8c-0.6,0-1.22,0.03-1.87,0.07c-0.61,0.03-1.23,0.07-1.87,0.07c-0.64,0-1.2-0.04-1.72-0.12
			c-1.25-0.18-3.1-1.34-4.9-2.46c-2.19-1.36-4.47-2.78-6.84-3.36c-0.45-0.15-1.22-0.4-1.39-0.52c0.02-0.03-0.18-0.59-0.35-1.08
			c-0.12-0.34-0.25-0.73-0.42-1.18l-0.26-0.72l-0.64-0.41l-0.44-0.28c-2.94-1.89-4.72-3.02-7.87-3.02c-1.41,0-3.11,0.22-5.87,0.77
			l-0.72,0.15l-0.5,0.55c-0.53,0.59-1.04,1.1-1.53,1.62c-0.62,0.64-1.22,1.26-1.88,2l-0.98,0.36l-0.52,0.19l-0.37,0.4
			c-1.14,1.26-2.14,2.13-3.53,3.05c-0.35,0.15-0.69,0.3-1.04,0.45c-1.03,0.45-2.01,0.88-3.18,1.26l-0.15,0.05L328,31.86
			c-1.69,0.82-3.11,1.56-4.6,2.85c-0.36,0.17-0.69,0.35-1.01,0.52c-0.52,0.28-0.94,0.5-1.46,0.67h-0.27
			c-0.87-1.37-1.72-2.78-2.53-4.15c-3.53-5.9-7.18-12-13.55-16.13l-0.3-0.2l-0.35-0.09c-1.87-0.49-3.2-0.75-5.35-1.02
			c-2.76-1.05-4.07-2.63-5.58-4.46c-1.19-1.45-2.56-3.09-4.68-4.49l-0.14-0.09l-0.15-0.07l-2.1-0.98l-0.21-0.1l-0.23-0.05
			l-1.78-0.41l-0.39-0.09l-0.39,0.05c-5.88,0.74-10.21,3.38-13.59,8.28c-0.42,0.35-0.85,0.71-1.27,1.07
			c-0.23,0.2-0.46,0.39-0.7,0.59c-0.68-0.52-1.29-1.08-1.97-1.69c-0.41-0.37-0.84-0.76-1.3-1.16l-0.59-0.52l-0.79-0.03
			c-0.31-0.01-0.61-0.02-0.91-0.02c-0.84,0-1.63,0.04-2.46,0.08c-0.46,0.03-0.94,0.05-1.44,0.07l-0.41,0.02l-0.37,0.15l-0.82,0.33
			c-0.99,0.4-1.92,0.78-2.93,1.34c-1.92,0.39-3.22,0.84-4.97,1.7l-0.63,0.31l-0.34,0.62c-1.02,1.85-2.09,3.26-3.35,4.44l-0.09,0.08
			l-0.08,0.1c-0.53,0.62-0.84,0.95-1.04,1.17c-0.6,0.65-0.7,0.83-1.21,1.79l-0.07,0.14c-0.69,0.2-1.29,0.41-1.95,0.63
			c-0.39,0.13-0.81,0.28-1.28,0.43l-0.26,0.08l-0.23,0.15c-1.41,0.88-2.25,2.01-2.79,3.05c-3.07,0.12-5.51,1.22-7.77,3.52
			l-1.77,0.35l-0.56,0.11l-0.44,0.36c-1.41,1.15-2.5,2.32-3.57,3.45c-0.97,1.04-1.89,2.01-2.97,2.9c-1.51,1.39-3.11,2.14-4.8,2.92
			c-1.72,0.8-3.51,1.62-5.25,3.07l-0.38,0.31l-0.21,0.44c-0.58,1.19-0.89,2.22-1.14,3.05c-0.12,0.39-0.22,0.7-0.31,0.96
			c-0.54-0.26-0.78-0.4-1.11-0.8l-0.26-0.32l-0.36-0.2c-2.76-1.57-5.18-3.35-7.75-5.23c-3.06-2.25-6.23-4.57-10.23-6.73l-0.58-0.32
			l-0.66,0.05c-6.93,0.54-10.18,4.05-13.04,7.15c-1.38,1.5-2.69,2.91-4.39,4.02c-4.38,2.83-8.66,5.2-12.8,7.49
			c-4.21,2.33-8.56,4.74-12.88,7.57l-0.24,0.16l-0.19,0.21c-2.69,2.96-7.77,5.43-12.26,7.62c-0.89,0.43-1.76,0.85-2.58,1.27
			c-1.64,0.9-3,1.67-4.31,2.42c-0.44,0.25-0.88,0.5-1.32,0.75l0.15,0.05H128.58z"/>
	</g>
</g>
<g>
</g>
<g>
</g>
<g>
</g>
<g>
</g>
<g>
</g>
<g>
</g>
<g>
</g>
<g>
</g>
<g>
</g>
<g>
</g>
<g>
</g>
<g>
</g>
<g>
</g>
<g>
</g>
<g>
</g>
</svg>
